<svg xmlns="http://www.w3.org/2000/svg" xmlns:xlink="http://www.w3.org/1999/xlink" version="1.1" id="Layer_1" x="0px" y="0px">

<symbol id="users" viewBox="0 0 24 24">
<path d="M13 20V18C13 15.2386 10.7614 13 8 13C5.23858 13 3 15.2386 3 18V20H13ZM13 20H21V19C21 16.0545 18.7614 14 16 14C14.5867 14 13.3103 14.6255 12.4009 15.6311M11 7C11 8.65685 9.65685 10 8 10C6.34315 10 5 8.65685 5 7C5 5.34315 6.34315 4 8 4C9.65685 4 11 5.34315 11 7ZM18 9C18 10.1046 17.1046 11 16 11C14.8954 11 14 10.1046 14 9C14 7.89543 14.8954 7 16 7C17.1046 7 18 7.89543 18 9Z" stroke-width="2" stroke-linecap="round" stroke-linejoin="round"/>
</symbol>

<symbol id="message" viewBox="0 0 24 24">
<path d="M21 20L20.5528 20.8944C20.8628 21.0494 21.2309 21.0329 21.5257 20.8507C21.8205 20.6684 22 20.3466 22 20H21ZM16.8052 18.0193L16.9438 17.029L16.8052 18.0193ZM17.6757 18.3378L17.2285 19.2323L17.6757 18.3378ZM17.1656 18.1044L16.8467 19.0522L17.1656 18.1044ZM3.21799 16.908L4.10899 16.454L3.21799 16.908ZM4.09202 17.782L4.54601 16.891L4.09202 17.782ZM19.908 4.21799L19.454 5.10899L19.908 4.21799ZM20.782 5.09202L19.891 5.54601L20.782 5.09202ZM4.09202 4.21799L4.54601 5.10899L4.09202 4.21799ZM3.21799 5.09202L4.10899 5.54601L3.21799 5.09202ZM6.2 5H17.8V3H6.2V5ZM4 14.8V7.2H2V14.8H4ZM16.2446 17H6.2V19H16.2446V17ZM21.4472 19.1056L18.1229 17.4434L17.2285 19.2323L20.5528 20.8944L21.4472 19.1056ZM16.2446 19C16.553 19 16.6133 19.0022 16.6665 19.0097L16.9438 17.029C16.7211 16.9978 16.4996 17 16.2446 17V19ZM18.1229 17.4434C17.8948 17.3294 17.6977 17.2283 17.4845 17.1566L16.8467 19.0522C16.8977 19.0693 16.9526 19.0943 17.2285 19.2323L18.1229 17.4434ZM16.6665 19.0097C16.7278 19.0182 16.7881 19.0325 16.8467 19.0522L17.4845 17.1566C17.3086 17.0974 17.1276 17.0547 16.9438 17.029L16.6665 19.0097ZM2 14.8C2 15.3436 1.99922 15.8114 2.03057 16.195C2.06287 16.5904 2.13419 16.9836 2.32698 17.362L4.10899 16.454C4.0838 16.4045 4.04612 16.3038 4.02393 16.0322C4.00078 15.7488 4 15.3766 4 14.8H2ZM6.2 17C5.62345 17 5.25117 16.9992 4.96784 16.9761C4.69617 16.9539 4.59545 16.9162 4.54601 16.891L3.63803 18.673C4.01641 18.8658 4.40963 18.9371 4.80497 18.9694C5.18864 19.0008 5.65645 19 6.2 19V17ZM2.32698 17.362C2.6146 17.9265 3.07354 18.3854 3.63803 18.673L4.54601 16.891C4.35785 16.7951 4.20487 16.6422 4.10899 16.454L2.32698 17.362ZM17.8 5C18.3766 5 18.7488 5.00078 19.0322 5.02393C19.3038 5.04612 19.4045 5.0838 19.454 5.10899L20.362 3.32698C19.9836 3.13419 19.5904 3.06287 19.195 3.03057C18.8114 2.99922 18.3436 3 17.8 3V5ZM22 7.2C22 6.65645 22.0008 6.18864 21.9694 5.80497C21.9371 5.40963 21.8658 5.01641 21.673 4.63803L19.891 5.54601C19.9162 5.59545 19.9539 5.69617 19.9761 5.96784C19.9992 6.25117 20 6.62345 20 7.2H22ZM19.454 5.10899C19.6422 5.20487 19.7951 5.35785 19.891 5.54601L21.673 4.63803C21.3854 4.07354 20.9265 3.6146 20.362 3.32698L19.454 5.10899ZM6.2 3C5.65645 3 5.18864 2.99922 4.80497 3.03057C4.40963 3.06287 4.01641 3.13419 3.63803 3.32698L4.54601 5.10899C4.59545 5.0838 4.69617 5.04612 4.96784 5.02393C5.25117 5.00078 5.62345 5 6.2 5V3ZM4 7.2C4 6.62345 4.00078 6.25117 4.02393 5.96784C4.04612 5.69617 4.0838 5.59545 4.10899 5.54601L2.32698 4.63803C2.13419 5.01641 2.06287 5.40963 2.03057 5.80497C1.99922 6.18864 2 6.65645 2 7.2H4ZM3.63803 3.32698C3.07354 3.6146 2.6146 4.07354 2.32698 4.63803L4.10899 5.54601C4.20487 5.35785 4.35785 5.20487 4.54601 5.10899L3.63803 3.32698ZM10 12H14V10H10V12ZM14 12V13H16V12H14ZM14 13H10V15H14V13ZM10 13V12H8V13H10ZM10 13H8C8 14.1046 8.89543 15 10 15V13ZM14 13V15C15.1046 15 16 14.1046 16 13H14ZM14 12H16C16 10.8954 15.1046 10 14 10V12ZM10 10C8.89543 10 8 10.8954 8 12H10V10ZM11 11V10H9V11H11ZM13 10V11H15V10H13ZM12 9C12.5523 9 13 9.44772 13 10H15C15 8.34315 13.6569 7 12 7V9ZM11 10C11 9.44772 11.4477 9 12 9V7C10.3431 7 9 8.34315 9 10H11ZM20 7.2V20H22V7.2H20Z"/>
</symbol>

<symbol id="send" viewBox="0 0 24 24">
<path d="M11.5003 12H5.41872M5.24634 12.7972L4.24158 15.7986C3.69128 17.4424 3.41613 18.2643 3.61359 18.7704C3.78506 19.21 4.15335 19.5432 4.6078 19.6701C5.13111 19.8161 5.92151 19.4604 7.50231 18.7491L17.6367 14.1886C19.1797 13.4942 19.9512 13.1471 20.1896 12.6648C20.3968 12.2458 20.3968 11.7541 20.1896 11.3351C19.9512 10.8529 19.1797 10.5057 17.6367 9.81135L7.48483 5.24303C5.90879 4.53382 5.12078 4.17921 4.59799 4.32468C4.14397 4.45101 3.77572 4.78336 3.60365 5.22209C3.40551 5.72728 3.67772 6.54741 4.22215 8.18767L5.24829 11.2793C5.34179 11.561 5.38855 11.7019 5.407 11.8459C5.42338 11.9738 5.42321 12.1032 5.40651 12.231C5.38768 12.375 5.34057 12.5157 5.24634 12.7972Z" stroke-width="2" stroke-linecap="round" stroke-linejoin="round"/>
</symbol>

<symbol id="filter" viewBox="0 0 24 24">
<path d="M19.5 12C18.1193 12 17 10.8807 17 9.5C17 8.11929 18.1193 7 19.5 7M19.5 12C20.8807 12 22 10.8807 22 9.5C22 8.11929 20.8807 7 19.5 7M19.5 12V21M19.5 7V3M12 18.9998C10.6193 18.9998 9.5 17.8805 9.5 16.4998C9.5 15.1191 10.6193 13.9998 12 13.9998M12 18.9998C13.3807 18.9998 14.5 17.8805 14.5 16.4998C14.5 15.1191 13.3807 13.9998 12 13.9998M12 18.9998V20.9996M12 13.9998V3.00012M4.5 10C3.11929 10 2 8.88071 2 7.5C2 6.11929 3.11929 5 4.5 5M4.5 10C5.88071 10 7 8.88071 7 7.5C7 6.11929 5.88071 5 4.5 5M4.5 10V21M4.5 5V3" stroke-width="2" stroke-linecap="round" stroke-linejoin="round"/>
</symbol>

<symbol id="logout" viewBox="0 0 24 24">
<path d="M16.9995 15.9995L20.9995 11.9995M20.9995 11.9995L16.9995 7.99951M20.9995 11.9995H8.99951M12.9995 20.9995H6.20029C5.08019 20.9995 4.52014 20.9995 4.09231 20.7815C3.71599 20.5898 3.41003 20.2838 3.21828 19.9075C3.00029 19.4797 3.00029 18.9196 3.00029 17.7995V6.19951C3.00029 5.07941 3.00029 4.51935 3.21828 4.09153C3.41003 3.71521 3.71599 3.40925 4.09231 3.2175C4.52014 2.99951 5.08019 2.99951 6.20029 2.99951L12.9995 2.99951" stroke-width="2" stroke-linecap="round" stroke-linejoin="round"/>
</symbol>

<symbol id="call" viewBox="0 0 24 24">
<path d="M3 5.5C3 14.0604 9.93959 21 18.5 21C18.8862 21 19.2691 20.9859 19.6483 20.9581C20.0834 20.9262 20.3009 20.9103 20.499 20.7963C20.663 20.7019 20.8185 20.5345 20.9007 20.364C21 20.1582 21 19.9181 21 19.438V16.6207C21 16.2169 21 16.015 20.9335 15.842C20.8749 15.6891 20.7795 15.553 20.6559 15.4456C20.516 15.324 20.3262 15.255 19.9468 15.117L16.74 13.9509C16.2985 13.7904 16.0777 13.7101 15.8683 13.7237C15.6836 13.7357 15.5059 13.7988 15.3549 13.9058C15.1837 14.0271 15.0629 14.2285 14.8212 14.6314L14 16C11.3501 14.7999 9.2019 12.6489 8 10L9.36863 9.17882C9.77145 8.93713 9.97286 8.81628 10.0942 8.64506C10.2012 8.49408 10.2643 8.31637 10.2763 8.1317C10.2899 7.92227 10.2096 7.70153 10.0491 7.26005L8.88299 4.05321C8.745 3.67376 8.67601 3.48403 8.55442 3.3441C8.44701 3.22049 8.31089 3.12515 8.15802 3.06645C7.98496 3 7.78308 3 7.37932 3H4.56201C4.08188 3 3.84181 3 3.63598 3.09925C3.4655 3.18146 3.29814 3.33701 3.2037 3.50103C3.08968 3.69907 3.07375 3.91662 3.04189 4.35173C3.01413 4.73086 3 5.11378 3 5.5Z" stroke-width="2" stroke-linecap="round" stroke-linejoin="round"/>
</symbol>

</svg>